# xmcd CD database file
#
# Track frame offsets:
#	187
#	16262
#	32272
#	49162
#	66824
#	88259
#	105619
#	124192
#	144839
#	165809
#	184292
#	199932
#	218959
#	240594
#	260669
#	280679
#	306039
#	326944
#
# Disc length: 4678 seconds
#
# Revision: 4
# Processed by: cddbd v1.5PL3 Copyright (c) Steve Scherf et al.
# Submitted via: CDex 1.51
#
DISCID=fd124412
DTITLE=Janet Jackson - Design Of A Decade 1986-1996
DYEAR=1995
DGENRE=Pop
TTITLE0=Runaway
TTITLE1=What Have You Done For Me Lately
TTITLE2=Nasty
TTITLE3=When I Think Of You
TTITLE4=Escapade
TTITLE5=Miss You Much
TTITLE6=Whoops Now
TTITLE7=Love Will Never Do (Without You)
TTITLE8=Alright
TTITLE9=The Best Things In Life Are Free
TTITLE10=Control
TTITLE11=The Pleasure Principle
TTITLE12=Black Cat
TTITLE13=Rhythm Nation
TTITLE14=That's The Way Love Goes
TTITLE15=Come Back To Me
TTITLE16=Let's Wait Awhile
TTITLE17=Twenty Foreplay
EXTD=YEAR: 1995
EXTT0=
EXTT1=
EXTT2=
EXTT3=
EXTT4=
EXTT5=
EXTT6=
EXTT7=
EXTT8=
EXTT9=
EXTT10=
EXTT11=
EXTT12=
EXTT13=
EXTT14=
EXTT15=
EXTT16=
EXTT17=
PLAYORDER=
